<mxfile host="app.diagrams.net" modified="2024-02-01T23:53:19.710Z" agent="Mozilla/5.0 (Windows NT 10.0; Win64; x64) AppleWebKit/537.36 (KHTML, like Gecko) Chrome/121.0.0.0 Safari/537.36 Edg/121.0.0.0" version="23.1.1" etag="dm6rxtS7YEzGzdQTdngT" type="github">
  <diagram name="Page-1" id="paGguoa2xfOfwMsR3EWE">
    <mxGraphModel>
      <root>
        <mxCell id="0" />
        <mxCell id="1" parent="0" />
      </root>
    </mxGraphModel>
  </diagram>
</mxfile>
